<svg xmlns="http://www.w3.org/2000/svg" xmlns:xlink="http://www.w3.org/1999/xlink" width="500" zoomAndPan="magnify" viewBox="0 0 375 374.999991" height="500" preserveAspectRatio="xMidYMid meet" version="1.0"><defs><g/><clipPath id="183a502094"><path d="M 97 193 L 119 193 L 119 230.511719 L 97 230.511719 Z M 97 193 " clip-rule="nonzero"/></clipPath><clipPath id="acebaaf133"><path d="M 92 144.484375 L 113 144.484375 L 113 184 L 92 184 Z M 92 144.484375 " clip-rule="nonzero"/></clipPath><clipPath id="28d97eefa5"><path d="M 108 175 L 147.894531 175 L 147.894531 196 L 108 196 Z M 108 175 " clip-rule="nonzero"/></clipPath><clipPath id="25ec316566"><path d="M 61.644531 179 L 100 179 L 100 202 L 61.644531 202 Z M 61.644531 179 " clip-rule="nonzero"/></clipPath></defs><rect x="-37.5" width="450" fill="#ffffff" y="-37.499999" height="449.999989" fill-opacity="1"/><rect x="-37.5" width="450" fill="#ffffff" y="-37.499999" height="449.999989" fill-opacity="1"/><path fill="#1c4475" d="M 117.695312 160.417969 C 116.597656 160.417969 115.710938 161.304688 115.710938 162.398438 C 115.710938 163.496094 116.597656 164.382812 117.695312 164.382812 C 118.789062 164.382812 119.675781 163.496094 119.675781 162.398438 C 119.675781 161.304688 118.789062 160.417969 117.695312 160.417969 Z M 119.328125 166.320312 L 119.328125 188.394531 L 116.0625 188.394531 L 116.0625 166.320312 C 114.527344 165.679688 113.449219 164.164062 113.449219 162.398438 C 113.449219 160.054688 115.347656 158.15625 117.695312 158.15625 C 120.039062 158.15625 121.9375 160.054688 121.9375 162.398438 C 121.9375 164.164062 120.859375 165.679688 119.328125 166.320312 " fill-opacity="1" fill-rule="nonzero"/><g clip-path="url(#183a502094)"><path fill="#1c4475" d="M 101.328125 224.507812 C 100.230469 224.507812 99.34375 225.394531 99.34375 226.492188 C 99.34375 227.585938 100.230469 228.472656 101.328125 228.472656 C 102.421875 228.472656 103.308594 227.585938 103.308594 226.492188 C 103.308594 225.394531 102.421875 224.507812 101.328125 224.507812 Z M 114.152344 193.757812 C 114.246094 193.703125 114.332031 193.640625 114.417969 193.578125 C 114.90625 193.667969 115.40625 193.714844 115.917969 193.714844 L 118.511719 193.714844 C 117.914062 194.859375 117.007812 195.839844 115.855469 196.542969 C 113.683594 197.871094 111.03125 197.96875 108.765625 196.808594 C 107.519531 196.167969 106.0625 196.222656 104.867188 196.953125 C 103.671875 197.683594 102.960938 198.953125 102.960938 200.355469 L 102.960938 222.570312 C 104.492188 223.210938 105.570312 224.726562 105.570312 226.492188 C 105.570312 228.835938 103.671875 230.734375 101.328125 230.734375 C 98.980469 230.734375 97.082031 228.835938 97.082031 226.492188 C 97.082031 224.726562 98.160156 223.210938 99.695312 222.570312 L 99.695312 200.355469 C 99.695312 197.808594 100.992188 195.492188 103.164062 194.167969 C 105.339844 192.839844 107.988281 192.738281 110.253906 193.902344 C 111.5 194.542969 112.957031 194.488281 114.152344 193.757812 " fill-opacity="1" fill-rule="nonzero"/></g><path fill="#1c4475" d="M 92.070312 214.582031 C 93.164062 214.582031 94.054688 213.695312 94.054688 212.601562 C 94.054688 211.503906 93.164062 210.617188 92.070312 210.617188 C 90.976562 210.617188 90.085938 211.503906 90.085938 212.601562 C 90.085938 213.695312 90.976562 214.582031 92.070312 214.582031 Z M 90.4375 208.679688 L 90.4375 186.601562 L 92.027344 186.601562 C 92.640625 186.601562 93.21875 186.789062 93.703125 187.121094 L 93.703125 208.679688 C 95.238281 209.320312 96.316406 210.832031 96.316406 212.601562 C 96.316406 214.945312 94.414062 216.84375 92.070312 216.84375 C 89.726562 216.84375 87.824219 214.945312 87.824219 212.601562 C 87.824219 210.832031 88.902344 209.320312 90.4375 208.679688 " fill-opacity="1" fill-rule="nonzero"/><g clip-path="url(#acebaaf133)"><path fill="#1c4475" d="M 108.4375 146.527344 C 107.34375 146.527344 106.453125 147.414062 106.453125 148.507812 C 106.453125 149.605469 107.34375 150.492188 108.4375 150.492188 C 109.53125 150.492188 110.421875 149.605469 110.421875 148.507812 C 110.421875 147.414062 109.53125 146.527344 108.4375 146.527344 Z M 110.070312 152.429688 L 110.070312 176.464844 C 110.070312 179.011719 108.773438 181.324219 106.597656 182.652344 C 104.425781 183.980469 101.773438 184.078125 99.507812 182.917969 C 98.582031 182.441406 97.539062 182.351562 96.570312 182.632812 C 95.398438 181.863281 94.035156 181.398438 92.589844 181.304688 C 92.980469 180.917969 93.421875 180.570312 93.910156 180.273438 C 96.082031 178.945312 98.734375 178.847656 101 180.011719 C 102.246094 180.648438 103.703125 180.597656 104.894531 179.867188 C 106.089844 179.136719 106.804688 177.863281 106.804688 176.464844 L 106.804688 152.425781 C 105.269531 151.789062 104.191406 150.273438 104.191406 148.507812 C 104.191406 146.164062 106.09375 144.261719 108.4375 144.261719 C 110.78125 144.261719 112.683594 146.164062 112.683594 148.507812 C 112.683594 150.273438 111.605469 151.789062 110.070312 152.429688 " fill-opacity="1" fill-rule="nonzero"/></g><g clip-path="url(#28d97eefa5)"><path fill="#009eed" d="M 143.875 189.074219 C 142.777344 189.074219 141.890625 189.960938 141.890625 191.054688 C 141.890625 192.152344 142.777344 193.039062 143.875 193.039062 C 144.96875 193.039062 145.855469 192.152344 145.855469 191.054688 C 145.855469 189.960938 144.96875 189.074219 143.875 189.074219 Z M 143.875 195.300781 C 142.109375 195.300781 140.59375 194.222656 139.953125 192.6875 L 115.917969 192.6875 C 113.371094 192.6875 111.058594 191.390625 109.730469 189.214844 C 108.402344 187.042969 108.300781 184.390625 109.464844 182.125 C 109.683594 181.703125 109.816406 181.257812 109.875 180.808594 C 110.664062 179.527344 111.097656 178.035156 111.097656 176.464844 L 111.097656 175.226562 C 111.476562 175.613281 111.816406 176.046875 112.105469 176.527344 C 113.433594 178.699219 113.535156 181.351562 112.371094 183.617188 C 111.730469 184.863281 111.785156 186.320312 112.515625 187.515625 C 113.246094 188.707031 114.515625 189.421875 115.917969 189.421875 L 139.953125 189.421875 C 140.59375 187.886719 142.109375 186.808594 143.875 186.808594 C 146.21875 186.808594 148.117188 188.710938 148.117188 191.054688 C 148.117188 193.398438 146.21875 195.300781 143.875 195.300781 " fill-opacity="1" fill-rule="nonzero"/></g><path fill="#009eed" d="M 79.78125 172.703125 C 78.6875 172.703125 77.800781 173.59375 77.800781 174.6875 C 77.800781 175.78125 78.6875 176.671875 79.78125 176.671875 C 80.878906 176.671875 81.765625 175.78125 81.765625 174.6875 C 81.765625 173.59375 80.878906 172.703125 79.78125 172.703125 Z M 105.777344 176.320312 L 83.703125 176.320312 C 83.0625 177.855469 81.546875 178.933594 79.78125 178.933594 C 77.4375 178.933594 75.535156 177.03125 75.535156 174.6875 C 75.535156 172.34375 77.4375 170.441406 79.78125 170.441406 C 81.546875 170.441406 83.0625 171.519531 83.703125 173.054688 L 105.777344 173.054688 L 105.777344 176.320312 " fill-opacity="1" fill-rule="nonzero"/><g clip-path="url(#25ec316566)"><path fill="#009eed" d="M 65.890625 181.960938 C 64.796875 181.960938 63.90625 182.847656 63.90625 183.945312 C 63.90625 185.039062 64.796875 185.925781 65.890625 185.925781 C 66.984375 185.925781 67.875 185.039062 67.875 183.945312 C 67.875 182.847656 66.984375 181.960938 65.890625 181.960938 Z M 98.625 196.769531 C 98.785156 197.03125 98.96875 197.265625 99.175781 197.480469 C 98.84375 198.382812 98.667969 199.351562 98.667969 200.355469 L 98.667969 201.128906 C 97.523438 200.53125 96.542969 199.625 95.835938 198.472656 C 94.511719 196.300781 94.410156 193.648438 95.574219 191.382812 C 96.214844 190.136719 96.160156 188.679688 95.429688 187.484375 C 94.699219 186.289062 93.425781 185.578125 92.027344 185.578125 L 69.808594 185.578125 C 69.171875 187.109375 67.65625 188.1875 65.890625 188.1875 C 63.546875 188.1875 61.644531 186.289062 61.644531 183.945312 C 61.644531 181.597656 63.546875 179.699219 65.890625 179.699219 C 67.65625 179.699219 69.171875 180.777344 69.808594 182.3125 L 92.027344 182.3125 C 94.574219 182.3125 96.886719 183.609375 98.214844 185.78125 C 99.542969 187.957031 99.640625 190.609375 98.480469 192.875 C 97.839844 194.117188 97.894531 195.574219 98.625 196.769531 " fill-opacity="1" fill-rule="nonzero"/></g><path fill="#009eed" d="M 129.980469 198.328125 C 128.886719 198.328125 128 199.214844 128 200.3125 C 128 201.40625 128.886719 202.292969 129.980469 202.292969 C 131.078125 202.292969 131.964844 201.40625 131.964844 200.3125 C 131.964844 199.214844 131.078125 198.328125 129.980469 198.328125 Z M 129.980469 204.554688 C 128.214844 204.554688 126.703125 203.476562 126.0625 201.945312 L 103.984375 201.945312 L 103.984375 200.355469 C 103.984375 199.742188 104.171875 199.164062 104.503906 198.679688 L 126.0625 198.679688 C 126.703125 197.144531 128.214844 196.066406 129.980469 196.066406 C 132.328125 196.066406 134.226562 197.96875 134.226562 200.3125 C 134.226562 202.65625 132.328125 204.554688 129.980469 204.554688 " fill-opacity="1" fill-rule="nonzero"/><g fill="#4eeac9" fill-opacity="1"><g transform="translate(125.978713, 184.101772)"><g><path d="M 7.921875 0 L 1.484375 0 L 1.484375 -17.453125 L 7.625 -17.453125 C 9.238281 -17.453125 10.578125 -17.332031 11.640625 -17.09375 C 12.703125 -16.851562 13.5 -16.425781 14.03125 -15.8125 C 14.5625 -15.207031 14.828125 -14.328125 14.828125 -13.171875 C 14.828125 -12.359375 14.695312 -11.71875 14.4375 -11.25 C 14.1875 -10.789062 13.847656 -10.453125 13.421875 -10.234375 C 13.003906 -10.023438 12.550781 -9.890625 12.0625 -9.828125 C 11.570312 -9.765625 11.097656 -9.710938 10.640625 -9.671875 L 10.640625 -8.6875 C 11.296875 -8.664062 11.953125 -8.609375 12.609375 -8.515625 C 13.265625 -8.429688 13.851562 -8.257812 14.375 -8 C 14.90625 -7.75 15.328125 -7.351562 15.640625 -6.8125 C 15.953125 -6.28125 16.109375 -5.550781 16.109375 -4.625 C 16.109375 -3.632812 15.894531 -2.832031 15.46875 -2.21875 C 15.050781 -1.613281 14.46875 -1.148438 13.71875 -0.828125 C 12.96875 -0.503906 12.097656 -0.285156 11.109375 -0.171875 C 10.117188 -0.0546875 9.054688 0 7.921875 0 Z M 5.4375 -13.984375 L 5.4375 -10.8125 L 8.125 -10.8125 C 8.664062 -10.8125 9.140625 -10.832031 9.546875 -10.875 C 9.960938 -10.914062 10.285156 -11.046875 10.515625 -11.265625 C 10.742188 -11.492188 10.859375 -11.875 10.859375 -12.40625 C 10.859375 -12.925781 10.742188 -13.296875 10.515625 -13.515625 C 10.285156 -13.742188 9.960938 -13.878906 9.546875 -13.921875 C 9.140625 -13.960938 8.664062 -13.984375 8.125 -13.984375 Z M 5.4375 -7.34375 L 5.4375 -3.46875 L 8.421875 -3.46875 C 9.210938 -3.46875 9.882812 -3.492188 10.4375 -3.546875 C 10.988281 -3.609375 11.410156 -3.769531 11.703125 -4.03125 C 12.003906 -4.300781 12.15625 -4.753906 12.15625 -5.390625 C 12.15625 -6.054688 12.003906 -6.519531 11.703125 -6.78125 C 11.410156 -7.039062 10.988281 -7.195312 10.4375 -7.25 C 9.882812 -7.3125 9.210938 -7.34375 8.421875 -7.34375 Z M 5.4375 -7.34375 "/></g></g></g><g fill="#4eeac9" fill-opacity="1"><g transform="translate(143.825191, 184.101772)"><g><path d="M 13.125 -17.453125 L 13.125 -13.984375 L 9.15625 -13.984375 L 9.15625 -3.46875 L 13.125 -3.46875 L 13.125 0 L 1.234375 0 L 1.234375 -3.46875 L 5.203125 -3.46875 L 5.203125 -13.984375 L 1.234375 -13.984375 L 1.234375 -17.453125 Z M 13.125 -17.453125 "/></g></g></g><g fill="#4eeac9" fill-opacity="1"><g transform="translate(158.676646, 184.101772)"><g><path d="M 16.859375 -4.796875 C 16.859375 -3.804688 16.601562 -2.929688 16.09375 -2.171875 C 15.59375 -1.421875 14.796875 -0.828125 13.703125 -0.390625 C 12.617188 0.0351562 11.175781 0.25 9.375 0.25 C 7.28125 0.25 5.601562 -0.0234375 4.34375 -0.578125 C 3.082031 -1.128906 2.164062 -1.925781 1.59375 -2.96875 C 1.03125 -4.007812 0.75 -5.265625 0.75 -6.734375 L 4.703125 -6.734375 C 4.703125 -5.398438 5.066406 -4.476562 5.796875 -3.96875 C 6.535156 -3.46875 7.769531 -3.21875 9.5 -3.21875 C 10.769531 -3.21875 11.648438 -3.359375 12.140625 -3.640625 C 12.640625 -3.921875 12.890625 -4.289062 12.890625 -4.75 C 12.890625 -5.175781 12.675781 -5.535156 12.25 -5.828125 C 11.820312 -6.117188 11.253906 -6.390625 10.546875 -6.640625 C 9.847656 -6.898438 9.070312 -7.171875 8.21875 -7.453125 C 7.289062 -7.765625 6.421875 -8.070312 5.609375 -8.375 C 4.804688 -8.675781 4.097656 -9.035156 3.484375 -9.453125 C 2.878906 -9.867188 2.398438 -10.363281 2.046875 -10.9375 C 1.703125 -11.519531 1.53125 -12.238281 1.53125 -13.09375 C 1.53125 -14.570312 2.113281 -15.707031 3.28125 -16.5 C 4.445312 -17.300781 6.148438 -17.703125 8.390625 -17.703125 C 10.171875 -17.703125 11.632812 -17.421875 12.78125 -16.859375 C 13.925781 -16.304688 14.769531 -15.5625 15.3125 -14.625 C 15.863281 -13.695312 16.140625 -12.660156 16.140625 -11.515625 L 12.171875 -11.515625 C 12.171875 -12.222656 12.003906 -12.773438 11.671875 -13.171875 C 11.347656 -13.566406 10.898438 -13.84375 10.328125 -14 C 9.765625 -14.15625 9.117188 -14.234375 8.390625 -14.234375 C 7.492188 -14.234375 6.785156 -14.128906 6.265625 -13.921875 C 5.753906 -13.710938 5.5 -13.382812 5.5 -12.9375 C 5.5 -12.675781 5.570312 -12.453125 5.71875 -12.265625 C 5.863281 -12.085938 6.164062 -11.894531 6.625 -11.6875 C 7.09375 -11.488281 7.789062 -11.234375 8.71875 -10.921875 C 9.351562 -10.703125 10.035156 -10.460938 10.765625 -10.203125 C 11.503906 -9.953125 12.234375 -9.664062 12.953125 -9.34375 C 13.671875 -9.019531 14.320312 -8.644531 14.90625 -8.21875 C 15.5 -7.789062 15.972656 -7.296875 16.328125 -6.734375 C 16.679688 -6.171875 16.859375 -5.523438 16.859375 -4.796875 Z M 16.859375 -4.796875 "/></g></g></g><g fill="#4eeac9" fill-opacity="1"><g transform="translate(176.770647, 184.101772)"><g><path d="M 0.75 -17.453125 L 16.109375 -17.453125 L 16.109375 -13.984375 L 10.421875 -13.984375 L 10.421875 0 L 6.453125 0 L 6.453125 -13.984375 L 0.75 -13.984375 Z M 0.75 -17.453125 "/></g></g></g><g fill="#4eeac9" fill-opacity="1"><g transform="translate(194.122079, 184.101772)"><g/></g></g><g fill="#4eeac9" fill-opacity="1"><g transform="translate(201.547861, 184.101772)"><g><path d="M 13.125 -17.453125 L 13.125 -13.984375 L 9.15625 -13.984375 L 9.15625 -3.46875 L 13.125 -3.46875 L 13.125 0 L 1.234375 0 L 1.234375 -3.46875 L 5.203125 -3.46875 L 5.203125 -13.984375 L 1.234375 -13.984375 L 1.234375 -17.453125 Z M 13.125 -17.453125 "/></g></g></g><g fill="#4eeac9" fill-opacity="1"><g transform="translate(216.399316, 184.101772)"><g><path d="M 0.75 -17.453125 L 16.109375 -17.453125 L 16.109375 -13.984375 L 10.421875 -13.984375 L 10.421875 0 L 6.453125 0 L 6.453125 -13.984375 L 0.75 -13.984375 Z M 0.75 -17.453125 "/></g></g></g><g fill="#4eeac9" fill-opacity="1"><g transform="translate(233.750748, 184.101772)"><g/></g></g><g fill="#4eeac9" fill-opacity="1"><g transform="translate(241.17653, 184.101772)"><g><path d="M 1.234375 -8.734375 C 1.234375 -10.429688 1.597656 -11.953125 2.328125 -13.296875 C 3.054688 -14.640625 4.085938 -15.707031 5.421875 -16.5 C 6.753906 -17.300781 8.347656 -17.703125 10.203125 -17.703125 C 11.828125 -17.703125 13.25 -17.421875 14.46875 -16.859375 C 15.695312 -16.296875 16.6875 -15.488281 17.4375 -14.4375 C 18.1875 -13.394531 18.644531 -12.15625 18.8125 -10.71875 L 14.84375 -10.71875 C 14.644531 -11.875 14.125 -12.75 13.28125 -13.34375 C 12.445312 -13.9375 11.4375 -14.234375 10.25 -14.234375 C 8.726562 -14.234375 7.503906 -13.765625 6.578125 -12.828125 C 5.660156 -11.898438 5.203125 -10.535156 5.203125 -8.734375 C 5.203125 -6.929688 5.660156 -5.5625 6.578125 -4.625 C 7.503906 -3.6875 8.726562 -3.21875 10.25 -3.21875 C 11.4375 -3.21875 12.445312 -3.519531 13.28125 -4.125 C 14.125 -4.726562 14.644531 -5.601562 14.84375 -6.75 L 18.8125 -6.75 C 18.644531 -5.320312 18.1875 -4.082031 17.4375 -3.03125 C 16.6875 -1.976562 15.695312 -1.164062 14.46875 -0.59375 C 13.25 -0.03125 11.828125 0.25 10.203125 0.25 C 8.347656 0.25 6.753906 -0.144531 5.421875 -0.9375 C 4.085938 -1.726562 3.054688 -2.800781 2.328125 -4.15625 C 1.597656 -5.507812 1.234375 -7.035156 1.234375 -8.734375 Z M 1.234375 -8.734375 "/></g></g></g><g fill="#4eeac9" fill-opacity="1"><g transform="translate(261.721006, 184.101772)"><g><path d="M 13.9375 0 L 3.609375 0.25 C 2.929688 0.257812 2.40625 0.0859375 2.03125 -0.265625 C 1.664062 -0.628906 1.484375 -1.148438 1.484375 -1.828125 L 1.484375 -17.453125 L 5.4375 -17.453125 L 5.4375 -3.21875 L 13.9375 -3.46875 Z M 13.9375 0 "/></g></g></g><g fill="#4eeac9" fill-opacity="1"><g transform="translate(276.64672, 184.101772)"><g><path d="M 0.984375 -6.484375 L 0.984375 -17.453125 L 4.953125 -17.453125 L 4.953125 -8.234375 C 4.953125 -7.460938 4.988281 -6.765625 5.0625 -6.140625 C 5.132812 -5.523438 5.296875 -5 5.546875 -4.5625 C 5.796875 -4.125 6.179688 -3.789062 6.703125 -3.5625 C 7.234375 -3.332031 7.953125 -3.21875 8.859375 -3.21875 C 10.078125 -3.21875 10.960938 -3.421875 11.515625 -3.828125 C 12.066406 -4.234375 12.414062 -4.8125 12.5625 -5.5625 C 12.71875 -6.3125 12.796875 -7.203125 12.796875 -8.234375 L 12.796875 -17.453125 L 16.75 -17.453125 L 16.75 -6.484375 C 16.75 -4.304688 16.082031 -2.640625 14.75 -1.484375 C 13.414062 -0.328125 11.453125 0.25 8.859375 0.25 C 6.265625 0.25 4.300781 -0.328125 2.96875 -1.484375 C 1.644531 -2.640625 0.984375 -4.304688 0.984375 -6.484375 Z M 0.984375 -6.484375 "/></g></g></g><g fill="#4eeac9" fill-opacity="1"><g transform="translate(294.889238, 184.101772)"><g><path d="M 7.921875 0 L 1.484375 0 L 1.484375 -17.453125 L 7.625 -17.453125 C 9.238281 -17.453125 10.578125 -17.332031 11.640625 -17.09375 C 12.703125 -16.851562 13.5 -16.425781 14.03125 -15.8125 C 14.5625 -15.207031 14.828125 -14.328125 14.828125 -13.171875 C 14.828125 -12.359375 14.695312 -11.71875 14.4375 -11.25 C 14.1875 -10.789062 13.847656 -10.453125 13.421875 -10.234375 C 13.003906 -10.023438 12.550781 -9.890625 12.0625 -9.828125 C 11.570312 -9.765625 11.097656 -9.710938 10.640625 -9.671875 L 10.640625 -8.6875 C 11.296875 -8.664062 11.953125 -8.609375 12.609375 -8.515625 C 13.265625 -8.429688 13.851562 -8.257812 14.375 -8 C 14.90625 -7.75 15.328125 -7.351562 15.640625 -6.8125 C 15.953125 -6.28125 16.109375 -5.550781 16.109375 -4.625 C 16.109375 -3.632812 15.894531 -2.832031 15.46875 -2.21875 C 15.050781 -1.613281 14.46875 -1.148438 13.71875 -0.828125 C 12.96875 -0.503906 12.097656 -0.285156 11.109375 -0.171875 C 10.117188 -0.0546875 9.054688 0 7.921875 0 Z M 5.4375 -13.984375 L 5.4375 -10.8125 L 8.125 -10.8125 C 8.664062 -10.8125 9.140625 -10.832031 9.546875 -10.875 C 9.960938 -10.914062 10.285156 -11.046875 10.515625 -11.265625 C 10.742188 -11.492188 10.859375 -11.875 10.859375 -12.40625 C 10.859375 -12.925781 10.742188 -13.296875 10.515625 -13.515625 C 10.285156 -13.742188 9.960938 -13.878906 9.546875 -13.921875 C 9.140625 -13.960938 8.664062 -13.984375 8.125 -13.984375 Z M 5.4375 -7.34375 L 5.4375 -3.46875 L 8.421875 -3.46875 C 9.210938 -3.46875 9.882812 -3.492188 10.4375 -3.546875 C 10.988281 -3.609375 11.410156 -3.769531 11.703125 -4.03125 C 12.003906 -4.300781 12.15625 -4.753906 12.15625 -5.390625 C 12.15625 -6.054688 12.003906 -6.519531 11.703125 -6.78125 C 11.410156 -7.039062 10.988281 -7.195312 10.4375 -7.25 C 9.882812 -7.3125 9.210938 -7.34375 8.421875 -7.34375 Z M 5.4375 -7.34375 "/></g></g></g></svg>